<?xml version="1.0" encoding="UTF-8" standalone="no"?><!DOCTYPE svg PUBLIC "-//W3C//DTD SVG 1.1//EN" "http://www.w3.org/Graphics/SVG/1.1/DTD/svg11.dtd"><svg width="100%" height="100%" viewBox="0 0 920 1200" version="1.1" xmlns="http://www.w3.org/2000/svg" xmlns:xlink="http://www.w3.org/1999/xlink" xml:space="preserve" xmlns:serif="http://www.serif.com/" style="fill-rule:evenodd;clip-rule:evenodd;stroke-linejoin:round;stroke-miterlimit:2;"><rect id="icon-no-space" x="0" y="0" width="920" height="1200" style="fill:none;"/><path d="M750.665,563.241c2.219,2.001 1.572,6.121 3.791,8.122c10.171,9.17 131.033,65.471 158.921,226.047c3.337,19.215 24.049,138.472 -45.256,239.552c-126.754,184.87 -356.299,160.466 -459.216,160.476c-402.049,0.038 -403.28,-0.699 -405.263,-4.61c-4.725,-9.322 -1.335,-1056.396 -1.037,-1148.256c0.098,-30.157 -5.512,-42.242 24.889,-42.174c526.729,1.193 550.748,-12.368 674.424,35.748c91.951,35.773 180.771,138.381 177.371,283.349c-3.973,169.403 -126.021,239.884 -128.625,241.746Zm-158.544,486.021c37.101,-9.306 36.829,-9.009 71.815,-24.283c34.499,-15.061 144.525,-95.501 88.245,-248.198c-4.275,-11.598 -14.927,-40.499 -105.106,-113.254c-70.767,-57.093 -184.113,-156.942 -189.866,-158.807c-4.824,-1.564 -294.46,248.635 -300.019,260.385c-6.416,13.562 -2.758,284.496 -1.742,286.606c3.767,7.829 202.343,5.999 206.353,1.217c6.133,-7.313 -3.887,-242.376 5.813,-250.04c5.39,-4.26 173.178,-2.673 177.257,-0.894c11.845,5.166 0.399,241.224 7.044,249.347c3.17,3.875 37.028,-1.568 40.209,-2.079Zm-251.447,-634.033c8.552,-7.229 98.517,-87.518 111.057,-97.502c11.094,-8.833 174.121,144.046 182.154,149.603c5.343,3.697 21.913,15.16 65.516,-47.996c31.168,-45.145 26.008,-137 9.966,-169.893c-53.083,-108.838 -174.92,-104.123 -227.285,-104.063c-319.175,0.366 -326.421,-3.237 -327.975,9.07c-0.718,5.688 -0.13,421.046 0.819,421.429c10.884,4.388 41.447,-31.939 44.371,-35.414c16.988,-20.191 1.808,-171.538 8.683,-188.969c2.994,-7.59 5.554,-6.251 101.835,-5.714c18.331,0.102 9.665,43.824 11.46,74.759c0.762,13.124 18.255,-4.177 19.399,-5.309Z" style="fill:#0091ff;"/></svg>