<?xml version="1.0" encoding="UTF-8" standalone="no"?><!DOCTYPE svg PUBLIC "-//W3C//DTD SVG 1.1//EN" "http://www.w3.org/Graphics/SVG/1.1/DTD/svg11.dtd"><svg width="100%" height="100%" viewBox="0 0 1200 490" version="1.1" xmlns="http://www.w3.org/2000/svg" xmlns:xlink="http://www.w3.org/1999/xlink" xml:space="preserve" xmlns:serif="http://www.serif.com/" style="fill-rule:evenodd;clip-rule:evenodd;stroke-linejoin:round;stroke-miterlimit:2;"><rect id="icon-full-name" x="0" y="0" width="1200" height="490" style="fill:none;"/><clipPath id="_clip1"><rect x="0" y="0" width="1200" height="490"/></clipPath><g clip-path="url(#_clip1)"><g id="Background"><path d="M766.065,476.965c-0.846,5.093 1.235,7.284 -3.551,7.617c-1.21,0.084 -134.12,0.036 -215.235,0.057c-2.288,0.001 -83.819,8.247 -115.046,-67.272c-27.939,-67.568 -17.22,-210.127 131.935,-207.577c40.19,0.687 168.444,-1.252 170.969,1.199c1.528,1.484 0.769,3.118 1.136,44.311c0.072,8.13 2.644,11.654 -5.368,11.828c-65.419,1.427 -186.811,-3.566 -206.522,3.788c-61.124,22.804 -57.344,151.493 12.283,156.159c25.646,1.719 225.108,-0.913 227.936,1.444c1.919,1.6 1.299,8.405 1.463,48.446Z" style="fill:#0091ff;"/><path d="M994.768,54.014c-65.799,4.243 -101.012,33.9 -128.657,104.23c-11.056,28.128 -16.361,99.962 -7.105,135.217c8.788,33.47 12.728,38.446 7.015,36.669c-56.468,-17.557 -64.151,-16.156 -65.498,-24.15c-51.066,-303.038 220.252,-361.906 332.025,-262.365c8.271,7.366 10.881,11.504 16.152,6.738c28.053,-25.366 30.889,-25.913 31.482,-22.858c0.411,2.119 12.632,83.256 13.723,90.497c6.298,41.816 7.047,43.996 3.506,44.22c-1.955,0.123 -118.266,-35.062 -128.533,-38.168c-5.916,-1.79 9.643,-12.543 26.983,-27.313c2.444,-2.082 5.801,-7.607 -29.06,-27.672c-7.488,-4.31 -24.368,-10.278 -31.871,-12.338c-9.453,-2.596 -36.941,-2.694 -40.161,-2.705Z" style="fill:#0091ff;"/><path d="M925.696,384.71c-13.81,10.889 -16.656,12.991 -10.931,18.178c60.199,54.54 166.407,48.057 210.257,-42.391c18.662,-38.494 14.437,-54.047 23.675,-51.594c4.013,1.065 46.823,12.43 49.598,15.278c4.856,4.984 -21.817,91.831 -72.024,126.202c-17.497,11.978 -25.562,24.577 -82.802,37.686c-24.65,5.645 -80.715,2.472 -103.345,-5.475c-65.803,-23.108 -70.78,-48.9 -80.091,-41.118c-27.715,23.164 -30.793,29.037 -31.706,22.73c-12.239,-84.563 -21.23,-130.968 -18.995,-132.468c1.981,-1.33 92.694,26.279 92.816,26.313c34.661,9.519 41.201,10.959 37.183,14.931c-1.023,1.012 -1.376,0.58 -13.634,11.727Z" style="fill:#0091ff;"/><path d="M501.082,7.153c37.153,-6.157 37.218,-5.348 124.299,-5.348c128.914,0.001 129.248,-0.695 130.666,0.5c2.639,2.224 2.201,54.821 0.074,56.513c-2.064,1.642 -154.921,0.503 -206.732,0.737c-80.214,0.364 -66.396,68.147 -67.573,140.87c-0.156,9.649 -6.803,8.077 -24.438,22.102c-29.481,23.446 -38.597,53.41 -37.239,37.056c6.153,-74.123 -15.627,-170.012 29.188,-220.391c22.53,-25.327 46.047,-29.958 51.755,-32.04Z" style="fill:#0091ff;"/><path d="M303.276,228.431c0.896,0.808 0.635,2.473 1.532,3.281c4.109,3.705 52.936,26.45 64.203,91.321c1.348,7.763 9.716,55.941 -18.283,96.777c-51.208,74.686 -143.942,64.827 -185.519,64.831c-162.424,0.015 -162.922,-0.282 -163.722,-1.862c-1.909,-3.766 -0.539,-426.774 -0.419,-463.885c0.039,-12.183 -2.227,-17.066 10.055,-17.038c212.793,0.482 222.497,-4.997 272.461,14.442c37.147,14.452 73.03,55.905 71.656,114.47c-1.605,68.437 -50.911,96.911 -51.963,97.663Zm-64.05,196.348c14.988,-3.76 14.878,-3.64 29.013,-9.81c13.937,-6.085 58.387,-38.582 35.65,-100.27c-1.727,-4.686 -6.03,-16.361 -42.462,-45.753c-28.589,-23.065 -74.38,-63.403 -76.704,-64.157c-1.949,-0.632 -118.959,100.446 -121.205,105.193c-2.592,5.479 -1.114,114.934 -0.704,115.786c1.522,3.163 81.745,2.423 83.365,0.492c2.478,-2.954 -1.57,-97.917 2.348,-101.014c2.178,-1.721 69.962,-1.08 71.61,-0.361c4.785,2.087 0.161,97.452 2.846,100.734c1.28,1.565 14.959,-0.633 16.244,-0.84Zm-101.582,-256.143c3.455,-2.92 39.8,-35.356 44.866,-39.39c4.482,-3.569 70.343,58.193 73.588,60.438c2.159,1.493 8.853,6.125 26.468,-19.39c12.591,-18.238 10.507,-55.347 4.026,-68.635c-21.445,-43.969 -70.666,-42.065 -91.821,-42.041c-128.944,0.148 -131.871,-1.308 -132.499,3.664c-0.29,2.298 -0.053,170.099 0.331,170.253c4.397,1.773 16.744,-12.903 17.926,-14.307c6.863,-8.157 0.73,-69.3 3.508,-76.342c1.21,-3.066 2.244,-2.525 41.14,-2.308c7.406,0.041 3.905,17.705 4.63,30.202c0.308,5.302 7.375,-1.688 7.837,-2.145Z" style="fill:#0091ff;"/></g></g></svg>